<?xml version="1.0" encoding="UTF-8"?>
<!DOCTYPE svg PUBLIC "-//W3C//DTD SVG 1.1//EN" "http://www.w3.org/Graphics/SVG/1.1/DTD/svg11.dtd">
<svg xmlns="http://www.w3.org/2000/svg" version="1.1" width="246px" height="288px" style="shape-rendering:geometricPrecision; text-rendering:geometricPrecision; image-rendering:optimizeQuality; fill-rule:evenodd; clip-rule:evenodd" xmlns:xlink="http://www.w3.org/1999/xlink">
<g><path style="opacity:1" fill="#fcfbfa" d="M -0.5,-0.5 C 81.5,-0.5 163.5,-0.5 245.5,-0.5C 245.5,95.5 245.5,191.5 245.5,287.5C 163.5,287.5 81.5,287.5 -0.5,287.5C -0.5,191.5 -0.5,95.5 -0.5,-0.5 Z"/></g>
<g><path style="opacity:1" fill="#b50201" d="M 33.5,2.5 C 86.1677,2.33334 138.834,2.50001 191.5,3C 197.297,3.57087 202.297,5.73754 206.5,9.5C 201.085,6.97306 195.418,5.13973 189.5,4C 137.332,3.83278 85.3317,3.33278 33.5,2.5 Z"/></g>
<g><path style="opacity:1" fill="#c72122" d="M 33.5,2.5 C 85.3317,3.33278 137.332,3.83278 189.5,4C 195.418,5.13973 201.085,6.97306 206.5,9.5C 211.479,12.4787 215.479,16.4787 218.5,21.5C 217.761,21.369 217.094,21.5357 216.5,22C 218.686,25.2047 220.186,28.7047 221,32.5C 221.667,68.5 221.667,104.5 221,140.5C 219,139.167 217,137.833 215,136.5C 214.601,136.728 214.435,137.062 214.5,137.5C 209.91,135.561 205.577,133.227 201.5,130.5C 202.833,115.348 203.499,99.848 203.5,84C 203.333,68.5 203.167,53 203,37.5C 202.258,32.849 200.092,29.0157 196.5,26C 195.563,25.3083 194.897,25.475 194.5,26.5C 193.29,26.0679 192.29,25.4013 191.5,24.5C 191.938,24.5654 192.272,24.3988 192.5,24C 191.833,23.6667 191.167,23.3333 190.5,23C 138.167,22.3333 85.8333,22.3333 33.5,23C 28.2076,23.7767 24.8743,26.6101 23.5,31.5C 23.6716,32.4916 23.3382,33.1583 22.5,33.5C 22.5654,33.0618 22.3988,32.7284 22,32.5C 21.6667,33.1667 21.3333,33.8333 21,34.5C 20.1699,107.207 20.3366,178.541 21.5,248.5C 23.1838,254.688 27.1838,258.855 33.5,261C 67.5,261.667 101.5,261.667 135.5,261C 115.699,245.799 106.366,225.632 107.5,200.5C 90.1635,200.667 72.8301,200.5 55.5,200C 51.3333,198.5 48.5,195.667 47,191.5C 45.4674,161.72 57.9674,140.22 84.5,127C 85.8333,126.333 87.1667,126.333 88.5,127C 104.603,135.693 120.603,135.526 136.5,126.5C 145.923,129.71 154.257,134.71 161.5,141.5C 191.704,136.687 215.204,147.02 232,172.5C 247.225,201.892 243.892,228.892 222,253.5C 219.228,262.422 214.062,269.422 206.5,274.5C 200.309,277.886 193.642,280.053 186.5,281C 137.833,281.667 89.1667,281.667 40.5,281C 25.7382,281.218 14.5716,275.051 7,262.5C 6.31001,261.262 5.81001,261.262 5.5,262.5C 4.59603,261.791 4.26269,260.791 4.5,259.5C 4.93822,259.565 5.27155,259.399 5.5,259C 4.28568,256.649 3.45234,254.149 3,251.5C 2.83294,178.999 2.33294,106.666 1.5,34.5C 4.47863,16.188 15.1453,5.52136 33.5,2.5 Z"/></g>
<g><path style="opacity:1" fill="#b90301" d="M 191.5,24.5 C 139.208,23.3423 86.8742,23.1757 34.5,24C 29.7207,25.0425 26.054,27.5425 23.5,31.5C 24.8743,26.6101 28.2076,23.7767 33.5,23C 85.8333,22.3333 138.167,22.3333 190.5,23C 191.167,23.3333 191.833,23.6667 192.5,24C 192.272,24.3988 191.938,24.5654 191.5,24.5 Z"/></g>
<g><path style="opacity:1" fill="#c72022" d="M 104.5,56.5 C 132.653,55.8188 146.153,69.4855 145,97.5C 138.121,118.698 123.621,127.198 101.5,123C 79.6999,113.227 72.8666,97.0604 81,74.5C 86.5676,65.4743 94.4009,59.4743 104.5,56.5 Z"/></g>
<g><path style="opacity:1" fill="#d24b49" d="M 222.5,35.5 C 223.83,71.3356 223.83,107.336 222.5,143.5C 221.893,143.376 221.56,143.043 221.5,142.5C 222.498,107.004 222.832,71.3372 222.5,35.5 Z"/></g>
<g><path style="opacity:1" fill="#bc0708" d="M 194.5,26.5 C 194.897,25.475 195.563,25.3083 196.5,26C 200.092,29.0157 202.258,32.849 203,37.5C 203.167,53 203.333,68.5 203.5,84C 203.499,99.848 202.833,115.348 201.5,130.5C 201.667,98.4983 201.5,66.4983 201,34.5C 199.726,31.0641 197.559,28.3974 194.5,26.5 Z"/></g>
<g><path style="opacity:1" fill="#ba0402" d="M 218.5,21.5 C 220.843,25.8631 222.176,30.5297 222.5,35.5C 222.832,71.3372 222.498,107.004 221.5,142.5C 218.953,141.066 216.619,139.4 214.5,137.5C 214.435,137.062 214.601,136.728 215,136.5C 217,137.833 219,139.167 221,140.5C 221.667,104.5 221.667,68.5 221,32.5C 220.186,28.7047 218.686,25.2047 216.5,22C 217.094,21.5357 217.761,21.369 218.5,21.5 Z"/></g>
<g><path style="opacity:1" fill="#b20000" d="M 22.5,33.5 C 21.5065,105.125 21.1731,176.792 21.5,248.5C 20.3366,178.541 20.1699,107.207 21,34.5C 21.3333,33.8333 21.6667,33.1667 22,32.5C 22.3988,32.7284 22.5654,33.0618 22.5,33.5 Z"/></g>
<g><path style="opacity:1" fill="#fcfafa" d="M 167.5,157.5 C 196.978,156.496 215.478,170.163 223,198.5C 224.836,228.979 211.003,247.813 181.5,255C 152.44,256.6 133.94,243.433 126,215.5C 123.922,184.621 137.756,165.288 167.5,157.5 Z"/></g>
<g><path style="opacity:1" fill="#c73a2b" d="M 1.5,34.5 C 2.33294,106.666 2.83294,178.999 3,251.5C 3.45234,254.149 4.28568,256.649 5.5,259C 5.27155,259.399 4.93822,259.565 4.5,259.5C 2.58289,256.196 1.41623,252.529 1,248.5C 0.167836,176.999 0.334503,105.665 1.5,34.5 Z"/></g>
<g><path style="opacity:1" fill="#c52020" d="M 168.5,171.5 C 172.909,170.618 176.409,171.952 179,175.5C 179.333,183.167 179.667,190.833 180,198.5C 186.634,204.646 193.634,210.313 201,215.5C 203.54,220.097 202.707,223.93 198.5,227C 195.366,227.79 192.366,227.457 189.5,226C 182.271,219.804 174.771,213.971 167,208.5C 165.378,197.264 165.045,185.931 166,174.5C 167.045,173.627 167.878,172.627 168.5,171.5 Z"/></g>
<g><path style="opacity:1" fill="#b80704" d="M 206.5,274.5 C 201.768,278.811 196.101,281.311 189.5,282C 136.833,282.667 84.1667,282.667 31.5,282C 19.6844,279.603 11.0178,273.103 5.5,262.5C 5.81001,261.262 6.31001,261.262 7,262.5C 14.5716,275.051 25.7382,281.218 40.5,281C 89.1667,281.667 137.833,281.667 186.5,281C 193.642,280.053 200.309,277.886 206.5,274.5 Z"/></g>
</svg>
